<svg width="100%" viewBox="0 0 680 500" role="img" xmlns="http://www.w3.org/2000/svg">
<title>Матрица Ансоффа — виды маркетинговых стратегий роста</title>
<style>
  text { font-family: 'Instrument Sans', sans-serif; }
  .serif { font-family: 'Instrument Serif', serif; }
</style>
<defs>
  <marker id="a" viewBox="0 0 10 10" refX="8" refY="5" markerWidth="6" markerHeight="6" orient="auto-start-reverse">
    <path d="M2 1L8 5L2 9" fill="none" stroke="#a8a29a" stroke-width="1.5" stroke-linecap="round" stroke-linejoin="round"/>
  </marker>
</defs>

<text x="285" y="20" text-anchor="middle" font-size="11" font-weight="600" letter-spacing=".1em" fill="#a8a29a">ТЕКУЩИЙ ПРОДУКТ</text>
<text x="525" y="20" text-anchor="middle" font-size="11" font-weight="600" letter-spacing=".1em" fill="#a8a29a">НОВЫЙ ПРОДУКТ</text>
<text x="36" y="178" text-anchor="middle" font-size="11" font-weight="600" letter-spacing=".1em" fill="#a8a29a" transform="rotate(-90 36 178)">ТЕКУЩИЙ РЫНОК</text>
<text x="36" y="385" text-anchor="middle" font-size="11" font-weight="600" letter-spacing=".1em" fill="#a8a29a" transform="rotate(-90 36 385)">НОВЫЙ РЫНОК</text>

<rect x="68" y="36" width="280" height="204" rx="10" fill="#18160f"/>
<text x="88" y="66" font-size="10" font-weight="600" letter-spacing=".12em" fill="rgba(248,246,242,.35)">01</text>
<text class="serif" x="208" y="128" text-anchor="middle" dominant-baseline="central" font-size="22" fill="#fff">Проникновение</text>
<text x="208" y="154" text-anchor="middle" dominant-baseline="central" font-size="13" fill="rgba(248,246,242,.4)">на рынок</text>
<rect x="84" y="192" width="248" height="30" rx="6" fill="#2d8a55"/>
<text x="208" y="207" text-anchor="middle" dominant-baseline="central" font-size="12" font-weight="600" fill="#fff">Низкий риск · рекомендован</text>

<rect x="360" y="36" width="280" height="204" rx="10" fill="#fff" stroke="#e6e1d9" stroke-width="0.5"/>
<rect x="360" y="36" width="280" height="3" rx="10" fill="#1d3a5f"/>
<text x="380" y="66" font-size="10" font-weight="600" letter-spacing=".12em" fill="#a8a29a">02</text>
<text class="serif" x="500" y="128" text-anchor="middle" dominant-baseline="central" font-size="22" fill="#18160f">Развитие</text>
<text class="serif" x="500" y="156" text-anchor="middle" dominant-baseline="central" font-size="22" fill="#18160f">продукта</text>
<text x="500" y="196" text-anchor="middle" dominant-baseline="central" font-size="12" fill="#a8a29a">Средний риск</text>

<rect x="68" y="252" width="280" height="204" rx="10" fill="#fff" stroke="#e6e1d9" stroke-width="0.5"/>
<rect x="68" y="252" width="280" height="3" rx="10" fill="#92520c"/>
<text x="88" y="282" font-size="10" font-weight="600" letter-spacing=".12em" fill="#a8a29a">03</text>
<text class="serif" x="208" y="346" text-anchor="middle" dominant-baseline="central" font-size="22" fill="#18160f">Расширение</text>
<text class="serif" x="208" y="374" text-anchor="middle" dominant-baseline="central" font-size="22" fill="#18160f">рынка</text>
<text x="208" y="410" text-anchor="middle" dominant-baseline="central" font-size="12" fill="#a8a29a">Средний риск</text>

<rect x="360" y="252" width="280" height="204" rx="10" fill="#fff" stroke="#e6e1d9" stroke-width="0.5"/>
<rect x="360" y="252" width="280" height="3" rx="10" fill="#8b1a1a"/>
<text x="380" y="282" font-size="10" font-weight="600" letter-spacing=".12em" fill="#a8a29a">04</text>
<text class="serif" x="500" y="346" text-anchor="middle" dominant-baseline="central" font-size="22" fill="#18160f">Диверсификация</text>
<text x="500" y="375" text-anchor="middle" dominant-baseline="central" font-size="13" fill="#a8a29a">Новый + Новый</text>
<text x="500" y="408" text-anchor="middle" dominant-baseline="central" font-size="12" fill="#8b1a1a">Высокий риск</text>

<line x1="352" y1="36" x2="352" y2="456" stroke="#e6e1d9" stroke-width="1"/>
<line x1="68" y1="244" x2="640" y2="244" stroke="#e6e1d9" stroke-width="1"/>
<line x1="80" y1="476" x2="628" y2="476" stroke="#e6e1d9" stroke-width="1" marker-end="url(#a)"/>
<text x="354" y="494" text-anchor="middle" font-size="11" fill="#a8a29a">Рост риска</text>
</svg>
